<svg width="150" height="150" fill="none" xmlns="http://www.w3.org/2000/svg"><path fill="#fff" d="M0 0h150v150H0z"/><circle cx="75.126" cy="75.126" r="73" transform="rotate(.1 75.126 75.126)" fill="url(#paint0_linear_1_133)"/><path fill-rule="evenodd" clip-rule="evenodd" d="M67.824 98.592c29.68.051 53.781-23.967 53.832-53.646a53.595 53.595 0 00-3.558-19.364c10.512 9.829 17.072 23.829 17.045 39.355-.051 29.68-24.152 53.697-53.832 53.646-22.855-.039-42.353-14.341-50.087-34.468 9.582 8.959 22.448 14.452 36.6 14.477z" fill="#7E6064"/><path fill-rule="evenodd" clip-rule="evenodd" d="M56.034 128.093c40.317.07 73.057-32.557 73.126-72.873.025-14.5-4.179-28.02-11.449-39.392 18.455 13.277 30.457 34.955 30.415 59.424-.07 40.317-32.81 72.944-73.126 72.874-25.817-.045-48.48-13.486-61.425-33.734 11.953 8.599 26.612 13.674 42.46 13.701z" fill="#271714"/><path d="M74.354 23.584a1 1 0 011.722.003l9.158 15.58a1 1 0 00.69.479l18.716 3.273a1 1 0 01.525 1.7L92.152 57.298a1 1 0 00-.292.854l2.413 17.408a1 1 0 01-1.394 1.053l-17.34-7.644a1 1 0 00-.804-.001L57.368 76.55a1 1 0 01-1.39-1.057l2.473-17.4a1 1 0 00-.29-.855L45.192 44.517a1 1 0 01.532-1.7L64.45 39.61a1 1 0 00.692-.476l9.211-15.549z" fill="#FFE391"/><defs><linearGradient id="paint0_linear_1_133" x1="68.626" y1="61.626" x2="63.126" y2="-68.374" gradientUnits="userSpaceOnUse"><stop stop-color="#ECA078"/><stop offset="1" stop-color="#FF5B5B"/></linearGradient></defs></svg>