<svg width="150" height="150" fill="none" xmlns="http://www.w3.org/2000/svg"><g clip-path="url(#clip0_1_153)"><path fill="#fff" d="M0 0h150v150H0z"/><circle cx="74.874" cy="73.963" r="73" transform="rotate(.1 74.874 73.963)" fill="url(#paint0_linear_1_153)"/><path fill-rule="evenodd" clip-rule="evenodd" d="M111.822 101.376c18.146-24.13 13.297-58.4-10.833-76.548a54.529 54.529 0 00-17.933-8.915c14.413-2.561 29.812.638 42.435 10.132 24.129 18.146 28.979 52.418 10.832 76.547-13.974 18.582-37.51 25.73-58.615 19.748 13.14-2.335 25.46-9.457 34.114-20.964z" fill="#7E6064"/><path fill-rule="evenodd" clip-rule="evenodd" d="M25.052 100.224c28.509 28.248 74.518 28.037 102.766-.472 10.159-10.253 16.637-22.77 19.442-35.91 3.786 22.313-2.875 46.062-20.02 63.365-28.247 28.508-74.257 28.719-102.765.472C6.22 109.59-.433 84.219 4.56 60.823c2.452 14.45 9.286 28.298 20.491 39.401z" fill="#271714"/><path d="M74.624 35a28.623 28.623 0 100 57.246 28.623 28.623 0 000-57.246zM63.357 54.032a3.045 3.045 0 110 6.09 3.045 3.045 0 010-6.09zm21.772 0a3.046 3.046 0 110 6.091 3.046 3.046 0 010-6.091zm4.495 12.309c-1.34 3.365-3.461 6.212-6.117 8.207-2.656 1.995-5.737 3.057-8.883 3.062-3.147-.004-6.227-1.065-8.883-3.06-2.656-1.994-4.777-4.839-6.118-8.203 4.124 4.524 9.464 7.03 15 7.041 5.538-.012 10.878-2.52 15-7.047z" fill="#FFE391"/></g><defs><linearGradient id="paint0_linear_1_153" x1="40.924" y1="1.059" x2="57.028" y2="61.031" gradientUnits="userSpaceOnUse"><stop stop-color="#F4816C"/><stop offset="1" stop-color="#ECA078"/></linearGradient><clipPath id="clip0_1_153"><path fill="#fff" d="M0 0h150v150H0z"/></clipPath></defs></svg>