<svg width="150" height="150" fill="none" xmlns="http://www.w3.org/2000/svg"><g clip-path="url(#clip0_1_143)"><path fill="#fff" d="M0 0h150v150H0z"/><circle cx="75.087" cy="75.093" r="73" transform="rotate(.1 75.087 75.093)" fill="url(#paint0_linear_1_143)"/><path fill-rule="evenodd" clip-rule="evenodd" d="M61.807 111.998c29.873 4.376 57.637-16.293 62.013-46.166a54.547 54.547 0 00-.761-20.013c9.151 11.427 13.715 26.477 11.426 42.105-4.376 29.873-32.14 50.542-62.013 46.166-23.004-3.37-40.55-20.609-45.404-42 8.341 10.416 20.494 17.821 34.739 19.908z" fill="#271714"/><path fill-rule="evenodd" clip-rule="evenodd" d="M28.56 43.154C17.415 81.709 39.633 122 78.186 133.145c13.866 4.009 27.957 3.702 40.835-.128-17.775 14.008-41.814 19.533-65.213 12.768-38.554-11.146-60.772-51.436-49.626-89.99C11.32 31.106 30.408 13.117 53.338 6.297 41.826 15.37 32.942 28 28.56 43.155z" fill="#7E6064"/><path d="M94.172 26.126l-27-.046-5.064 36.99 10.993 4.02-6.05 28.99 27.065-37.454-16.5-.028 16.556-32.472z" fill="#FFE391" stroke="#FFE391"/></g><defs><linearGradient id="paint0_linear_1_143" x1="52.587" y1="-32.907" x2="75.087" y2="75.093" gradientUnits="userSpaceOnUse"><stop stop-color="#F3836C"/><stop offset="1" stop-color="#ECA078"/></linearGradient><clipPath id="clip0_1_143"><path fill="#fff" d="M0 0h150v150H0z"/></clipPath></defs></svg>