<svg width="1920" height="127" fill="none" xmlns="http://www.w3.org/2000/svg"><g clip-path="url(#clip0_1_354)"><path fill="#fff" d="M0 0h1920v127H0z"/><path d="M-39 86c77.62-9.807 137.08-20.98 199.59-35.537 52.379-12.197 108.463-32.72 177.238-40.898 89.127-10.597 264.418 27.33 323.309 37.032 24.078 3.967 116.17 30.578 151.313 31.215 33.038.598 138.466-27.22 166.903-32.636C1105 21.243 1231.43 49.136 1373.23 56.503c197.24 10.246 383.02 14.857 584.8 15.206" stroke="#FF5B5B" stroke-width="3" stroke-linecap="round" stroke-linejoin="round"/><path d="M1922.93 127.392c-74.59-10.07-131.72-21.444-191.77-36.213-50.32-12.375-104.17-33.089-170.27-41.5-85.65-10.898-254.31 26.433-310.96 35.936-23.16 3.886-111.8 30.184-145.59 30.701-31.76.486-133.03-27.688-160.352-33.201-120.725-24.36-242.368 3.106-378.725 9.991-189.666 9.577-368.298 13.558-562.298 13.223" stroke="#271714" stroke-width="3" stroke-linecap="round" stroke-linejoin="round"/></g><defs><clipPath id="clip0_1_354"><path fill="#fff" d="M0 0h1920v127H0z"/></clipPath></defs></svg>