<svg width="125" height="73" fill="none" xmlns="http://www.w3.org/2000/svg"><path d="M12.34 67h-1.621V51.805h1.62V67zm20.02 0l-.323-1.523h-.078c-.534.67-1.068 1.126-1.602 1.367-.527.234-1.188.351-1.982.351-1.061 0-1.895-.273-2.5-.82-.599-.547-.898-1.325-.898-2.334 0-2.161 1.728-3.294 5.185-3.398l1.817-.059v-.664c0-.84-.183-1.458-.547-1.855-.358-.404-.935-.606-1.729-.606-.892 0-1.9.273-3.027.82l-.498-1.24a7.639 7.639 0 011.728-.674 7.568 7.568 0 011.895-.244c1.276 0 2.22.283 2.832.85.618.566.927 1.474.927 2.724V67h-1.2zm-3.663-1.143c1.01 0 1.8-.276 2.373-.83.58-.553.87-1.328.87-2.324v-.967l-1.622.069c-1.289.045-2.22.247-2.793.605-.566.352-.85.902-.85 1.65 0 .587.177 1.032.528 1.338.358.306.856.46 1.494.46zm16.514-9.56h1.738l2.344 6.103c.514 1.394.833 2.4.957 3.018h.078c.085-.332.26-.899.527-1.7.274-.807 1.16-3.28 2.657-7.421h1.738l-4.6 12.187c-.455 1.205-.99 2.058-1.601 2.559-.606.508-1.351.762-2.236.762-.495 0-.984-.056-1.465-.166v-1.3c.358.079.758.118 1.2.118 1.114 0 1.908-.625 2.384-1.875l.595-1.523-4.316-10.762zm31.016 5.342c0 1.744-.44 3.108-1.319 4.092-.879.976-2.093 1.464-3.642 1.464-.957 0-1.807-.224-2.55-.673-.741-.45-1.314-1.094-1.718-1.934-.404-.84-.605-1.823-.605-2.95 0-1.744.436-3.102 1.308-4.072.873-.976 2.084-1.464 3.633-1.464 1.497 0 2.685.498 3.564 1.494.886.996 1.329 2.344 1.329 4.043zm-8.155 0c0 1.367.274 2.408.82 3.125.547.716 1.352 1.074 2.413 1.074 1.06 0 1.865-.355 2.412-1.065.553-.716.83-1.76.83-3.134 0-1.361-.277-2.393-.83-3.096-.547-.71-1.358-1.065-2.432-1.065-1.061 0-1.862.349-2.402 1.045-.54.697-.81 1.735-.81 3.116zm22.53-5.342v6.943c0 .873.198 1.524.595 1.953.397.43 1.02.645 1.865.645 1.12 0 1.937-.306 2.452-.918.52-.612.78-1.611.78-2.998v-5.625h1.622V67h-1.338l-.234-1.436h-.088a3.22 3.22 0 01-1.387 1.211c-.586.28-1.256.42-2.012.42-1.302 0-2.278-.309-2.93-.927-.644-.619-.966-1.609-.966-2.97v-7.001h1.64zm24.218 9.56c.287 0 .563-.02.83-.058a5.92 5.92 0 00.635-.137v1.24c-.176.085-.436.153-.781.205a5.439 5.439 0 01-.918.088c-2.07 0-3.106-1.09-3.106-3.271v-6.367h-1.533v-.782l1.533-.673.684-2.286h.938v2.48h3.105v1.26h-3.105v6.3c0 .644.153 1.139.459 1.484.306.345.725.517 1.259.517zM10.512 20.936H.192V13.4h30.096v7.536H20.016V47h-9.504V20.936zm50.293 18.72V47H33.829V13.4H60.18v7.344H43.237v5.664h14.928v7.104H43.237v6.144h17.568zm43.504-18.72h-10.32V13.4h30.096v7.536h-10.272V47h-9.504V20.936z" fill="#423A39"/><path d="M77.887 47.672c-2.72 0-5.36-.336-7.92-1.008-2.56-.672-4.64-1.568-6.24-2.688l3.12-7.008c1.504.992 3.248 1.792 5.232 2.4 1.984.608 3.936.912 5.856.912 3.648 0 5.472-.912 5.472-2.736 0-.96-.528-1.664-1.584-2.112-1.024-.48-2.688-.976-4.992-1.488-2.528-.544-4.64-1.12-6.336-1.728a10.876 10.876 0 01-4.368-3.024c-1.216-1.376-1.824-3.232-1.824-5.568 0-2.048.56-3.888 1.68-5.52 1.12-1.664 2.784-2.976 4.992-3.936 2.24-.96 4.976-1.44 8.208-1.44 2.208 0 4.384.256 6.528.768 2.144.48 4.032 1.2 5.664 2.16l-2.928 7.056c-3.2-1.728-6.304-2.592-9.312-2.592-1.888 0-3.264.288-4.128.864-.864.544-1.296 1.264-1.296 2.16 0 .896.512 1.568 1.536 2.016 1.024.448 2.672.912 4.944 1.392 2.56.544 4.672 1.136 6.336 1.776a10.46 10.46 0 014.368 2.976c1.248 1.344 1.872 3.184 1.872 5.52 0 2.016-.56 3.84-1.68 5.472-1.12 1.632-2.8 2.944-5.04 3.936-2.24.96-4.96 1.44-8.16 1.44z" fill="#FF5B5B"/><path fill="#fff" d="M77 11h17v13H77z"/><circle cx="85.5" cy="16.5" r="5.5" fill="#FF5B5B"/></svg>